# xmcd
#
# Track frame offsets:
#	150
#	23392
#	35672
#	62780
#	75152
#	92725
#	120950
#	142507
#	163635
#	182455
#	201342
#	216127
#	230365
#
# Disc length: 3354 seconds
#
# Revision: 1
# Processed by: cddbd v1.4PL0 Copyright (c) Steve Scherf et al.
# Submitted via: MusicWizard 6.0.1
#
DISCID=950d180d
DTITLE=Steve Earle And The Dukes - The Hard Way
DYEAR=1990
DGENRE=Country
TTITLE0=The Other Kind
TTITLE1=Promise You Anything
TTITLE2=Esmeralda's Hollywood
TTITLE3=Hopeless Romantics
TTITLE4=This Heighway's Mine (Roadmaster)
TTITLE5=Billy Austin
TTITLE6=Justice In Ontario
TTITLE7=Have Mercy
TTITLE8=When The People Find Out
TTITLE9=Country Girl
TTITLE10=Regular Guy
TTITLE11=West Nashville Boogie
TTITLE12=Close Your Eyes
EXTD=(c)1990 MCA Records Germany\nUPC 022925723628\nProduced by Steve Earle and Joe Hardy
EXTT0=
EXTT1=
EXTT2=
EXTT3=
EXTT4=
EXTT5=
EXTT6=
EXTT7=
EXTT8=
EXTT9=
EXTT10=
EXTT11=
EXTT12=
PLAYORDER=
